<?xml version="1.0" standalone="no"?>
<!DOCTYPE svg PUBLIC "-//W3C//DTD SVG 20010904//EN"
 "http://www.w3.org/TR/2001/REC-SVG-20010904/DTD/svg10.dtd">
<svg version="1.0" xmlns="http://www.w3.org/2000/svg"
 width="100.000000pt" height="100.000000pt" viewBox="0 0 100.000000 100.000000"
 preserveAspectRatio="xMidYMid meet">
<metadata>
Created by potrace 1.14, written by Peter Selinger 2001-2017
</metadata>
<g transform="translate(0.000000,100.000000) scale(0.100000,-0.100000)"
fill="#000000" stroke="none">
<path d="M375 980 c-95 -25 -159 -62 -230 -135 -60 -61 -103 -134 -125 -214
-19 -72 -5 -75 126 -31 98 34 172 44 213 29 14 -6 58 -41 97 -79 39 -38 84
-74 100 -80 43 -17 139 -10 234 17 47 13 108 23 135 22 83 -1 78 -5 71 55 -31
291 -333 493 -621 416z m227 -307 c45 -26 70 -78 65 -132 -6 -55 -25 -72 -72
-61 -48 11 -85 37 -138 95 -52 59 -50 76 16 105 46 21 86 19 129 -7z"/>
<path d="M123 575 c-33 -12 -74 -31 -91 -44 -27 -19 -31 -27 -29 -62 1 -21 4
-38 7 -36 3 1 36 17 73 36 58 29 79 34 132 34 99 -2 147 -29 309 -175 27 -24
75 -32 122 -19 104 27 151 15 217 -58 21 -23 42 -39 48 -36 17 11 68 122 75
163 l6 40 -56 21 c-67 25 -127 27 -187 6 -102 -37 -169 -21 -308 72 -46 31
-102 62 -123 70 -54 18 -124 14 -195 -12z"/>
<path d="M179 451 c-80 -26 -139 -61 -145 -88 -8 -30 10 -73 57 -144 97 -144
251 -220 434 -214 105 3 173 25 265 86 54 37 60 44 60 75 0 25 -9 44 -36 73
-55 62 -106 71 -192 36 -19 -8 -41 -15 -50 -15 -8 0 -50 36 -94 80 -119 121
-188 147 -299 111z"/>
</g>
</svg>
