<?xml version="1.0" encoding="utf-8"?>
<!-- Generator: Adobe Illustrator 26.0.2, SVG Export Plug-In . SVG Version: 6.00 Build 0)  -->
<svg version="1.1" id="Layer_1" xmlns="http://www.w3.org/2000/svg" xmlns:xlink="http://www.w3.org/1999/xlink" x="0px" y="0px"
	 viewBox="0 0 100 100" style="enable-background:new 0 0 100 100;" xml:space="preserve">
<style type="text/css">
	.st0{fill:#FFFFFF;}
</style>
<path class="st0" d="M50.13,87.76c-15.86,0-30.19-10-35.67-24.87c0,0-0.88-2.97,0.86-4.31c3.99-3.09,11.22-5.68,15.01-5.92
	c0.36-0.02,0.73-0.04,1.11-0.04c4.37,0,8.38,1.84,12.62,5.78c2.21,2.05,3.91,3.96,5.28,5.48c2.29,2.55,3.8,4.24,5.72,4.68
	c0.26,0.06,0.53,0.09,0.8,0.09c1.02,0,1.96-0.45,3.04-0.97c1.21-0.58,2.72-1.31,4.91-1.67c0.68-0.11,1.48-0.22,2.32-0.22
	c2.04,0,5.17,0.58,8.82,5.62c2.35,3.23,1.71,5.31,1.55,5.7C69.4,84.08,60.28,87.76,50.13,87.76z M81.01,71.69
	c-1.55-2.11-7.21-9.21-13.26-9.21c-0.28,0-0.57,0.02-0.85,0.05c-0.13,0.01-3.21,0.33-4.87,0.93c-1.99,0.72-3.71,1.08-5.13,1.08
	c-1.01,0-1.86-0.19-2.52-0.56c-2.59-1.45-7.23-5.7-9.72-7.98c-0.56-0.51-1.01-0.93-1.3-1.18c-3.87-3.4-8.32-5.48-12.52-5.85
	c-0.13-0.01-0.3-0.03-0.48-0.05c-0.6-0.07-1.5-0.18-2.64-0.18c-4.9,0-10.06,1.98-15.35,5.9c-0.21-1.63-0.32-3.29-0.32-4.95
	c0-0.19,0-0.37-0.01-0.55c1.27-1.01,8.8-6.7,17.75-6.76l0.13,0c5.11,0,8.55,2.12,10.4,3.26c0.38,0.24,0.7,0.43,0.97,0.57
	c0.6,0.32,1.57,1,2.8,1.86c3.26,2.3,8.2,5.78,13.12,7.2c1.54,0.44,3.02,0.66,4.52,0.66c2.47,0,5.06-0.57,8.65-1.91
	c1.58-0.59,3.32-0.89,5.17-0.89c3.94,0,8.22,1.36,11.79,3.74l0,0.01c-0.27,1.21-0.53,2.36-0.84,3.5c-1.79-1.37-7.39-5.16-14.53-5.16
	c-2.07,0-4.1,0.33-6.05,0.97c-1.63,0.54-3.29,0.81-4.94,0.81c-6.22,0-11.3-3.8-15.02-6.57c-1.16-0.87-2.17-1.62-3.05-2.13
	c-0.49-0.28-0.99-0.59-1.52-0.92c-3.07-1.89-6.88-4.24-11.89-4.24c-2.01,0-4.09,0.39-6.18,1.16c-1.58,0.58-1.87,1.46-1.8,1.89
	c0.05,0.3,0.29,0.51,0.58,0.51c2.09-0.15,3.89-0.23,5.52-0.23c3.31,0,5.77,0.3,7.32,0.9c4.35,1.68,6.73,3.81,8.65,5.52
	c0.5,0.44,0.96,0.86,1.41,1.22c0.33,0.26,0.68,0.58,1.07,0.94l0.43,0.39c1.56,1.41,4.76,4.31,11.81,5.76
	c0.41,0.06,0.83,0.09,1.32,0.09c1.59,0,3.53-0.3,5.59-0.62c2.07-0.32,4.2-0.66,5.95-0.66c0.61,0,1.16,0.04,1.61,0.13
	c5.08,0.92,9.29,4.6,10.88,5.98c0.19,0.16,0.33,0.29,0.45,0.39C83.24,68.29,82.19,70.04,81.01,71.69z M58.95,52.39
	c-1.28,0-2.31-0.11-3.06-0.34c-2.28-0.68-4.83-1.72-8.75-6.19c-4.35-4.96-6.85-7.09-11.08-7.46c-0.25-0.01-0.49-0.02-0.74-0.02
	c-4.19,0-9.49,1.86-13.75,3.35c-1.3,0.45-2.51,0.88-3.58,1.21c-1.19,0.37-2.27,0.56-3.2,0.56c-1.23,0-1.91-0.34-2.19-0.53
	c3.19-18.21,18.88-31.4,37.43-31.4c20.6,0,37.17,16.02,37.84,36.52c-0.38,0.29-0.92,0.63-1.2,0.63c-0.46-0.04-1.03-0.12-1.67-0.21
	c-1.25-0.18-2.68-0.39-3.88-0.39c-0.27,0-0.52,0.01-0.76,0.03c-1.54,0.15-4.41,0.96-7.46,1.83c-2.79,0.79-5.68,1.61-7.15,1.77
	c-0.2,0.02-0.49,0.06-0.85,0.11C63.49,52.07,61.13,52.39,58.95,52.39z M52.46,33.85c-3.91,0-7.76,2.22-9.81,5.65
	c-0.13,0.21-0.08,0.49,0.12,0.65c0.03,0.02,2.57,2.05,5.09,5.37c1.33,1.74,3.81,4.06,6.8,5.32c1.4,0.59,2.84,0.89,4.28,0.89h0
	c1.6,0,2.62-0.38,2.66-0.39c0.1-0.04,0.18-0.11,0.24-0.19c1.18-1.81,1.8-3.92,1.8-6.09C63.65,38.87,58.63,33.85,52.46,33.85z"/>
<g>
	<g>
		<path class="st0" d="M84.69,66.47c0.03-0.05,0.05-0.18,0.08-0.23"/>
		<polygon class="st0" points="0.5,45.02 0.86,43.31 7.67,43.18 7.68,43.16 1.49,40.39 1.96,38.18 8.75,38.14 8.76,38.11 2.6,35.2 
			2.93,33.62 10.59,37.47 10.15,39.56 3.35,39.64 3.34,39.67 9.52,42.49 9.07,44.6 		"/>
		<path class="st0" d="M5.04,29.22l0.81-1.69l8.89,0.65l-0.8,1.66l-2.02-0.18l-1.45,3.03l1.4,1.48l-0.74,1.55L5.04,29.22z
			 M6.94,29.11l-0.01,0.02L9.5,31.7l1.05-2.19L6.94,29.11z"/>
		<path class="st0" d="M11.01,21.32c-0.08,0.12-0.15,0.24-0.21,0.38c-0.06,0.14-0.1,0.29-0.1,0.45c-0.01,0.15,0.03,0.31,0.1,0.47
			c0.07,0.16,0.2,0.3,0.39,0.44c0.14,0.1,0.29,0.14,0.45,0.12c0.16-0.02,0.33-0.07,0.5-0.15c0.18-0.09,0.37-0.2,0.56-0.33
			c0.19-0.12,0.39-0.24,0.6-0.37c0.2-0.14,0.42-0.26,0.64-0.36c0.23-0.11,0.47-0.18,0.72-0.2c0.24-0.03,0.49-0.02,0.75,0.03
			c0.26,0.07,0.54,0.21,0.83,0.42c0.72,0.53,1.06,1.16,1.03,1.86c-0.03,0.71-0.3,1.42-0.8,2.13c-0.25,0.35-0.48,0.62-0.71,0.82
			c-0.22,0.21-0.48,0.45-0.79,0.72l-1.13-1c0.61-0.28,1.11-0.69,1.51-1.23c0.2-0.28,0.32-0.6,0.36-0.95
			c0.04-0.36-0.08-0.65-0.37-0.87c-0.16-0.12-0.33-0.18-0.5-0.18c-0.18,0.01-0.36,0.05-0.53,0.13c-0.37,0.19-0.76,0.42-1.17,0.7
			c-0.21,0.13-0.43,0.24-0.65,0.34c-0.22,0.1-0.45,0.18-0.69,0.23c-0.24,0.03-0.49,0.02-0.75-0.03c-0.26-0.05-0.53-0.18-0.8-0.37
			c-0.74-0.55-1.1-1.18-1.07-1.89c0.03-0.68,0.26-1.33,0.7-1.94c0.41-0.58,0.88-1.06,1.4-1.44l1.02,0.92
			C11.78,20.45,11.36,20.84,11.01,21.32"/>
		<polygon class="st0" points="13.07,16.73 14.26,15.56 16.61,17.96 18.99,15.63 16.64,13.23 17.83,12.07 23.64,17.99 22.45,19.16 
			19.9,16.56 17.52,18.89 20.07,21.49 18.88,22.65 		"/>
		
			<rect x="22.25" y="9.17" transform="matrix(0.8032 -0.5958 0.5958 0.8032 -3.3916 16.3758)" class="st0" width="1.66" height="8.3"/>
		<polygon class="st0" points="23.35,7.96 25.14,6.98 30.9,10.9 30.92,10.89 27.94,5.45 29.34,4.68 33.32,11.96 31.54,12.94 
			25.77,9.02 25.75,9.03 28.73,14.47 27.33,15.24 		"/>
		<path class="st0" d="M36.7,3.3c-0.92,0.29-1.54,0.79-1.87,1.48c-0.33,0.69-0.37,1.45-0.11,2.29c0.26,0.82,0.7,1.42,1.34,1.79
			c0.64,0.39,1.38,0.46,2.23,0.21c0.43-0.13,0.77-0.28,1.01-0.44l-0.64-2.07l-1.68,0.52l-0.39-1.25l3.2-0.99l1.32,4.27
			c-0.77,0.52-1.58,0.92-2.44,1.2c-1.3,0.4-2.45,0.4-3.43-0.02c-1.01-0.39-1.73-1.26-2.15-2.59c-0.81-2.81,0.2-4.67,3.04-5.58
			c0.9-0.27,1.71-0.4,2.43-0.39l0.31,1.37C38.12,3.01,37.4,3.09,36.7,3.3"/>
	</g>
	<g>
		<polygon class="st0" points="43.24,2.06 40.88,2.35 40.72,1.05 47.09,0.26 47.25,1.56 44.89,1.85 45.75,8.79 44.1,8.99 		"/>
		<path class="st0" d="M49.34,1.23c0.73-0.74,1.75-1.09,3.07-1.03c1.31,0.08,2.3,0.52,2.96,1.33c0.66,0.8,0.96,1.84,0.9,3.13
			c-0.07,1.27-0.46,2.29-1.18,3.04C54.35,8.45,53.33,8.81,52,8.77c-1.33-0.08-2.31-0.53-2.96-1.35c-0.66-0.81-0.96-1.86-0.9-3.15
			C48.21,2.97,48.61,1.96,49.34,1.23 M50.32,6.43c0.33,0.64,0.92,0.98,1.75,1.04c0.43,0.02,0.8-0.05,1.11-0.21
			c0.31-0.16,0.56-0.38,0.74-0.65c0.38-0.58,0.58-1.25,0.62-2.03c0.04-0.77-0.11-1.45-0.44-2.06c-0.34-0.62-0.93-0.96-1.75-1.01
			c-0.82-0.02-1.42,0.26-1.81,0.84c-0.4,0.57-0.62,1.24-0.65,2C49.84,5.12,49.98,5.82,50.32,6.43"/>
	</g>
	<g>
		<polygon class="st0" points="58.65,0.91 60.63,1.4 62.21,8.19 62.23,8.19 63.72,2.17 65.27,2.56 63.27,10.61 61.3,10.12 
			59.71,3.33 59.69,3.33 58.2,9.35 56.65,8.96 		"/>
		<path class="st0" d="M72.89,15.21c-0.62-0.15-1.21-0.38-1.78-0.68c-1.19-0.66-1.98-1.49-2.36-2.49c-0.42-1-0.29-2.11,0.38-3.35
			c1.46-2.53,3.51-3.09,6.13-1.68c0.52,0.29,1.01,0.69,1.48,1.21l-0.78,1.17c-0.19-0.3-0.39-0.56-0.61-0.76
			c-0.23-0.18-0.48-0.35-0.75-0.49c-0.76-0.41-1.49-0.49-2.18-0.23c-0.72,0.25-1.28,0.75-1.71,1.51c-0.42,0.76-0.54,1.49-0.36,2.2
			c0.16,0.73,0.62,1.31,1.4,1.75c0.3,0.16,0.61,0.3,0.95,0.4c0.32,0.11,0.59,0.16,0.81,0.18L72.89,15.21z"/>
		<path class="st0" d="M78.7,10.61c1.03-0.15,2.05,0.19,3.07,1.03c1,0.86,1.52,1.8,1.56,2.85c0.04,1.04-0.35,2.05-1.17,3.03
			c-0.82,0.97-1.75,1.54-2.77,1.71c-1.05,0.17-2.08-0.17-3.11-1c-1.01-0.87-1.53-1.82-1.54-2.87c-0.04-1.04,0.36-2.06,1.19-3.05
			C76.75,11.32,77.67,10.76,78.7,10.61 M76.34,15.35c-0.12,0.71,0.14,1.33,0.77,1.88c0.33,0.27,0.66,0.44,1.01,0.5
			c0.34,0.06,0.67,0.04,0.99-0.07c0.65-0.23,1.22-0.65,1.72-1.24c0.49-0.59,0.79-1.22,0.89-1.9c0.1-0.7-0.16-1.32-0.78-1.86
			c-0.64-0.51-1.29-0.65-1.95-0.42c-0.66,0.21-1.24,0.61-1.73,1.2C76.75,14.02,76.44,14.66,76.34,15.35"/>
		<path class="st0" d="M86.68,16.39l1.03,1.31l-3.76,2.97c-0.56,0.44-0.92,0.89-1.08,1.36c-0.18,0.48-0.07,0.96,0.31,1.45
			c0.39,0.5,0.84,0.71,1.35,0.65c0.48-0.06,1-0.31,1.56-0.75l3.76-2.97l1.03,1.31l-4.16,3.29c-1.68,1.29-3.21,1.06-4.56-0.71
			c-1.41-1.73-1.29-3.26,0.36-4.6L86.68,16.39z"/>
		<polygon class="st0" points="92.54,24.28 93.47,26.1 89.37,31.73 89.38,31.75 94.91,28.94 95.63,30.36 88.24,34.12 87.32,32.31 
			91.41,26.67 91.4,26.65 85.87,29.46 85.15,28.04 		"/>
		<polygon class="st0" points="95.83,34.96 95.14,32.68 96.39,32.3 98.25,38.45 97,38.83 96.31,36.55 89.62,38.57 89.14,36.98 		"/>
		<polygon class="st0" points="93.92,42.98 98.49,39.31 98.75,41.24 95.55,43.65 99.27,45.17 99.5,46.91 94.14,44.63 90.88,45.06 
			90.66,43.41 		"/>
		<path class="st0" d="M29.04,86.22c0.98-0.34,2.05-0.19,3.21,0.45c1.14,0.66,1.82,1.5,2.05,2.52c0.23,1.01,0.03,2.08-0.6,3.2
			c-0.63,1.11-1.44,1.84-2.42,2.19c-1,0.36-2.08,0.22-3.24-0.42c-1.15-0.67-1.83-1.51-2.04-2.54c-0.23-1.02-0.02-2.09,0.61-3.22
			C27.24,87.27,28.05,86.55,29.04,86.22 M27.58,91.3c0.01,0.72,0.38,1.29,1.1,1.71c0.37,0.21,0.73,0.31,1.08,0.31
			c0.35,0,0.67-0.09,0.96-0.25c0.59-0.35,1.08-0.86,1.46-1.54c0.38-0.67,0.55-1.35,0.53-2.03c-0.03-0.71-0.4-1.27-1.11-1.69
			c-0.72-0.39-1.38-0.41-2-0.06c-0.61,0.33-1.11,0.83-1.48,1.5C27.74,89.92,27.55,90.61,27.58,91.3"/>
		<path class="st0" d="M36.45,88.96l1.71,0.54c0.44,0.14,0.88,0.28,1.31,0.42c0.43,0.16,0.81,0.36,1.13,0.6
			c0.33,0.24,0.56,0.54,0.69,0.91c0.12,0.36,0.1,0.82-0.07,1.37c-0.15,0.47-0.42,0.83-0.81,1.08c-0.39,0.25-0.86,0.33-1.39,0.25
			l-0.01,0.02c0.2,0.09,0.35,0.24,0.43,0.45c0.08,0.21,0.13,0.42,0.15,0.63l0.3,3.49l-1.77-0.56l-0.17-2.77
			c0-0.33-0.06-0.58-0.18-0.75c-0.12-0.17-0.35-0.31-0.67-0.41l-0.51-0.16l-1.03,3.29l-1.59-0.5L36.45,88.96z M36.98,92.84
			l0.52,0.16c0.2,0.06,0.41,0.11,0.63,0.15c0.2,0.04,0.4,0.05,0.58,0.02c0.18-0.02,0.35-0.09,0.5-0.2c0.14-0.12,0.24-0.3,0.32-0.54
			c0.08-0.24,0.09-0.45,0.05-0.62c-0.06-0.17-0.16-0.31-0.3-0.43c-0.14-0.12-0.3-0.22-0.49-0.3c-0.2-0.07-0.4-0.14-0.61-0.2
			l-0.52-0.16L36.98,92.84z"/>
	</g>
	<g>
		<polygon class="st0" points="43.04,90.88 47.9,91.51 47.73,92.8 44.52,92.39 44.26,94.41 47.19,94.8 47.03,96.09 44.09,95.71 
			43.79,98.02 47.02,98.44 46.85,99.74 41.97,99.1 		"/>
		<path class="st0" d="M53.43,92.52c-0.96,0.07-1.69,0.39-2.17,0.99c-0.49,0.59-0.71,1.32-0.66,2.19c0.05,0.86,0.34,1.55,0.87,2.06
			c0.52,0.53,1.23,0.78,2.11,0.73c0.45-0.03,0.81-0.09,1.09-0.18l-0.13-2.16l-1.76,0.1l-0.08-1.3l3.35-0.2l0.26,4.46
			c-0.87,0.32-1.76,0.52-2.66,0.59c-1.36,0.08-2.47-0.2-3.32-0.84c-0.89-0.62-1.37-1.63-1.46-3.03c-0.12-2.92,1.31-4.49,4.28-4.69
			c0.93-0.05,1.75,0.02,2.45,0.2l-0.02,1.41C54.88,92.59,54.16,92.48,53.43,92.52"/>
	</g>
	<g>
		<path class="st0" d="M57.82,91.87c0.45-0.94,1.3-1.6,2.57-1.97c1.27-0.35,2.34-0.25,3.23,0.3c0.88,0.54,1.51,1.43,1.86,2.66
			c0.35,1.23,0.31,2.31-0.13,3.26c-0.45,0.96-1.3,1.64-2.57,2.02c-1.28,0.36-2.36,0.25-3.24-0.32c-0.89-0.55-1.51-1.45-1.87-2.69
			C57.32,93.89,57.36,92.8,57.82,91.87 M60.43,96.47c0.52,0.49,1.19,0.63,1.99,0.41c0.41-0.12,0.74-0.3,0.98-0.56
			c0.24-0.25,0.41-0.54,0.49-0.86c0.17-0.67,0.15-1.38-0.07-2.12c-0.21-0.74-0.58-1.34-1.08-1.8c-0.53-0.47-1.19-0.6-1.98-0.39
			c-0.78,0.24-1.26,0.7-1.44,1.39c-0.19,0.67-0.18,1.37,0.03,2.11C59.55,95.39,59.91,96,60.43,96.47"/>
		<polygon class="st0" points="65.01,88.53 66.8,87.54 72.58,91.42 72.6,91.41 69.58,85.99 70.97,85.21 75.01,92.46 73.23,93.45 
			67.44,89.57 67.42,89.58 70.44,95 69.05,95.78 		"/>
	</g>
</g>
</svg>
